<svg width="511.99998" height="511" xmlns="http://www.w3.org/2000/svg" style="vector-effect: non-scaling-stroke;" stroke="null">

 <g stroke="null">
  <title stroke="null">background</title>
  <rect stroke="null" fill="none" id="canvas_background" height="402" width="582" y="-1" x="-1"/>
 </g>
 <g stroke="null">
  <title stroke="null">Layer 1</title>
  <g stroke="null" id="svg_38">
   <path stroke="null" id="svg_20" fill="#ffb655" d="m394.941107,46.58334l-2.527743,0l-59.922368,0l-234.931369,0l-59.476296,82.04244l163.559814,0l89.214444,0l17.396817,0l63.788327,0l82.37467,0l-59.476296,-82.04244z"/>
   <path stroke="null" id="svg_21" fill="#ff9811" d="m372.042733,128.62578l-63.788327,0l-17.396817,0l0,31.996552l0,36.372149l45.945439,0l117.614375,0l0,-68.3687l-82.37467,0z"/>
   <path stroke="null" id="svg_22" fill="#ffb655" d="m38.083332,196.99448l0,205.106101a29.827362,27.429523 0 0 0 29.738148,27.34748l356.857775,0a29.827362,27.429523 0 0 0 29.738148,-27.34748l0,-205.106101l-416.334071,0z"/>
   <path stroke="null" id="svg_23" fill="#ff9811" d="m38.083332,128.62578l163.559814,0l0,68.3687l-163.559814,0l0,-68.3687z"/>
   <path stroke="null" id="svg_24" fill="#e6e7e8" d="m201.643146,128.62578l0,68.3687l0,57.976658l0,10.392042l44.607222,-27.34748l37.023994,22.698408l7.583228,4.649072l0,-11.896154l0,-56.472546l0,-36.372149l0,-31.996552l-89.214444,0z"/>
   <g stroke="null" id="svg_10">
    <path stroke="null" id="svg_1" fill="#49c3e0" d="m129.661523,311.444625l-44.963841,0c-4.974127,0 -9.004466,3.361023 -9.004466,7.5091l0,111.468119l62.972767,0l0,-111.468119c0,-4.148077 -4.033,-7.5091 -9.004459,-7.5091zm0,0"/>
    <path stroke="null" id="svg_2" fill="#00a5c6" d="m105.732028,311.444625l-21.034346,0c-4.974127,0 -9.004466,3.361023 -9.004466,7.5091l0,111.4659l21.034346,0l0,-111.4659c0,-4.148077 4.030346,-7.5091 9.004466,-7.5091zm0,0"/>
    <path stroke="null" id="svg_3" fill="#3ac7b4" d="m224.823855,282.037864l-44.963835,0c-4.974127,0 -9.004466,3.361023 -9.004466,7.5091l0,140.87488l62.972767,0l0,-140.87488c0,-4.148077 -4.033,-7.5091 -9.004466,-7.5091zm0,0"/>
    <path stroke="null" id="svg_4" fill="#00ad94" d="m200.894366,282.037864l-21.034346,0c-4.974127,0 -9.004466,3.361023 -9.004466,7.5091l0,140.87488l21.034346,0l0,-140.87488c0,-4.148077 4.030339,-7.5091 9.004466,-7.5091zm0,0"/>
    <path stroke="null" id="svg_5" fill="#ffcd38" d="m319.986193,252.631104l-44.963835,0c-4.971466,0 -9.004466,3.361023 -9.004466,7.5091l0,170.279422l62.972767,0l0,-170.279422c0,-4.148077 -4.030339,-7.5091 -9.004466,-7.5091zm0,0"/>
    <path stroke="null" id="svg_6" fill="#e7b835" d="m296.056704,252.631104l-21.034346,0c-4.971466,0 -9.004466,3.363242 -9.004466,7.5091l0,170.281641l21.034346,0l0,-170.281641c0,-4.148077 4.033,-7.5091 9.004466,-7.5091zm0,0"/>
    <path stroke="null" id="svg_7" fill="#ff8c57" d="m415.148531,223.224343l-44.963835,0c-4.971466,0 -9.001812,3.361023 -9.001812,7.5091l0,199.686182l62.970113,0l0,-199.686182c0,-4.148077 -4.030339,-7.5091 -9.004466,-7.5091zm0,0"/>
    <path stroke="null" id="svg_8" fill="#ec6a34" d="m391.219042,223.224343l-21.034346,0c-4.971466,0 -9.004466,3.361023 -9.004466,7.5091l0,199.688401l21.034346,0l0,-199.688401c0,-4.148077 4.033,-7.5091 9.004466,-7.5091zm0,0"/>
    <path stroke="null" id="svg_9" fill="#da5b65" d="m407.959847,142.692737l-56.890034,-1.680509c-4.702955,-0.137458 -7.582151,4.258922 -4.897031,7.484712l9.177274,11.014233c-30.897521,15.43722 -129.768519,58.83569 -264.457984,58.83569l0,31.508508c91.272901,0 166.67433,-18.851452 213.85539,-34.665566c34.518446,-11.57071 59.266768,-23.148071 72.205869,-29.739317l8.137781,9.77048c2.685121,3.223566 8.632268,2.509682 10.118394,-1.214938l17.971711,-45.043512c1.204316,-3.019601 -1.40903,-6.15671 -5.22137,-6.26978zm0,0"/>
   </g>
  </g>
  <path stroke="null" id="svg_15" fill="#ff5023" d="m495.083984,393.833261a105.750723,106.750708 0 0 1 -94.000643,106.078574a73.727838,74.425012 0 0 1 -7.833387,0.553522c-1.292509,0.079075 -2.585018,0.118612 -3.916693,0.118612a105.750723,106.750708 0 1 1 105.750723,-106.750708z"/>
  <path stroke="null" id="svg_16" fill="#e6e7e8" d="m479.41721,393.833261a90.083949,90.935788 0 0 1 -78.333869,90.145042a72.811331,73.499839 0 0 1 -7.833387,0.672134c-1.292509,0.079075 -2.585018,0.118612 -3.916693,0.118612a90.083949,90.935788 0 1 1 90.083949,-90.935788z"/>
  <path stroke="null" id="svg_17" fill="#ff9811" d="m378.227813,393.833261l11.081947,-11.186739l11.081947,11.186739l-11.081947,11.186739l-11.081947,-11.186739z"/>
  <path fill="#ff5023" stroke="null" id="svg_26" d="m385.416559,314.758662l7.833387,0l0,7.90746l-7.833387,0l0,-7.90746z"/>
  <path fill="#ff5023" stroke="null" id="svg_27" d="m331.1594,340.712104l5.538205,-5.590574l5.540974,5.593369l-5.538205,5.590574l-5.540974,-5.593369z"/>
  <path fill="#ff5023" stroke="null" id="svg_28" d="m310.999384,389.879531l7.833387,0l0,7.90746l-7.833387,0l0,-7.90746z"/>
  <path stroke="null" id="svg_29" d="m331.148002,446.942912l5.540974,-5.593369l5.538205,5.590574l-5.540974,5.593369l-5.538205,-5.590574z"/>
  <path fill="#ff5023" stroke="null" id="svg_30" d="m385.416559,465.0004l7.833387,0l0,7.90746l-7.833387,0l0,-7.90746z"/>
  <path fill="#ff5023" stroke="null" id="svg_31" d="m459.833735,389.879531l7.833387,0l0,7.90746l-7.833387,0l0,-7.90746z"/>
  <path fill="#ff5023" stroke="null" id="svg_32" d="m436.389556,340.7292l5.540974,-5.593369l5.538205,5.590574l-5.540974,5.593369l-5.538205,-5.590574z"/>
  <path fill="#ff5023" stroke="null" id="svg_39" d="m331.148002,446.942913l5.540974,-5.593369l5.538205,5.590574l-5.540974,5.593369l-5.538205,-5.590574z"/>
  <path stroke="null" id="svg_33" fill="#ff5023" d="m385.416567,334.527312l7.833387,0l0,47.444759l-7.833387,0l0,-47.444759z"/>
  <path stroke="null" id="svg_34" fill="#ff5023" d="m338.416246,389.879531l39.166935,0l0,7.90746l-39.166935,0l0,-7.90746z"/>
  <path stroke="null" id="svg_35" fill="#ed1c24" d="m389.333261,408.968139a3.916693,3.95373 0 0 1 -2.769102,-1.158443l-11.076409,-11.181148a3.916693,3.95373 0 0 1 0,-5.590574l11.076409,-11.181148a3.916693,3.95373 0 0 1 5.538205,0l11.076409,11.181148a3.916693,3.95373 0 0 1 0,5.590574l-11.076409,11.181148a3.916693,3.95373 0 0 1 -2.769102,1.158443zm-5.538205,-15.134878l5.538205,5.590574l5.538205,-5.590574l-5.538205,-5.590574l-5.538205,5.590574z"/>
  <path fill="#ff5023" stroke="null" id="svg_40" d="m437.213485,446.942914l5.540975,-5.59337l5.538204,5.590574l-5.540973,5.59337l-5.538205,-5.590574z"/>
 </g>
</svg>