<svg id="Layer_3" enable-background="new 0 0 64 64" height="512" viewBox="0 0 64 64" width="512" xmlns="http://www.w3.org/2000/svg"><g><path d="m2 2h40v52h-40z" fill="#c7e2fb"/><path d="m2 43.987c.167.003.332.013.5.013 19.054 0 34.5-15.67 34.5-35 0-2.397-.239-4.738-.691-7h-34.309z" fill="#ebf7fe"/><path d="m36 28h20v16h-20z" fill="#c18e5c"/><path d="m36 28v12.883c.657.072 1.323.117 2 .117 8.204 0 15.113-5.494 17.281-13z" fill="#cda57d"/><path d="m40 44h22v18h-22z" fill="#c18e5c"/><path d="m40 58.943c8.882-.608 16.42-6.568 19.914-14.943h-19.914z" fill="#cda57d"/><g fill="#4472b0"><path d="m6 6h8v8h-8z"/><path d="m6 18h8v8h-8z"/><path d="m6 30h8v8h-8z"/><path d="m6 42h8v8h-8z"/></g><g><path d="m17 7h22v2h-22z" fill="#c1c8d1"/></g><g><path d="m17 11h22v2h-22z" fill="#c1c8d1"/></g><g><path d="m17 19h22v2h-22z" fill="#c1c8d1"/></g><g><path d="m17 23h22v2h-22z" fill="#c1c8d1"/></g><g><path d="m17 31h19v2h-19z" fill="#c1c8d1"/></g><g><path d="m17 35h19v2h-19z" fill="#c1c8d1"/></g><g><path d="m6.343 7h11.314v2h-11.314z" fill="#c1c8d1" transform="matrix(.707 -.707 .707 .707 -2.142 10.828)"/></g><g><path d="m6.343 31h11.314v2h-11.314z" fill="#c1c8d1" transform="matrix(.707 -.707 .707 .707 -19.113 17.858)"/></g><path d="m48 44h6v6h-6z" fill="#e1c9b1"/><g><path d="m55 57h4v2h-4z" fill="#e1c9b1"/></g><g><path d="m49 39h4v2h-4z" fill="#e1c9b1"/></g><g><path d="m55 53h4v2h-4z" fill="#e1c9b1"/></g><path d="m18 44h22v18h-22z" fill="#c18e5c"/><path d="m18 58.943c8.882-.608 16.42-6.568 19.914-14.943h-19.914z" fill="#cda57d"/><path d="m26 44h6v6h-6z" fill="#e1c9b1"/><g><path d="m33 57h4v2h-4z" fill="#e1c9b1"/></g><g><path d="m33 53h4v2h-4z" fill="#e1c9b1"/></g><path d="m44 28h4v6h-4z" fill="#e1c9b1"/></g></svg>