<svg id="Time" height="512" viewBox="0 0 64 64" width="512" xmlns="http://www.w3.org/2000/svg"><path d="m57 30a27 27 0 0 1 -24 26.83 18.824 18.824 0 0 1 -2 .14c-.33.02-.66.03-1 .03a27 27 0 1 1 27-27z" fill="#ff5023"/><path d="m53 30a23 23 0 0 1 -20 22.8 18.59 18.59 0 0 1 -2 .17c-.33.02-.66.03-1 .03a23 23 0 1 1 23-23z" fill="#e6e7e8"/><path d="m27.999 27.999h4.002v4.002h-4.002z" fill="#ff9811" transform="matrix(.707 -.707 .707 .707 -12.426 30)"/><path d="m35.67 35-2.67 4v13.8a18.59 18.59 0 0 1 -2 .17v-11.97l4-6z" fill="#d8d7da"/><path d="m33 52.8v4.03a18.824 18.824 0 0 1 -2 .14v-4a18.59 18.59 0 0 0 2-.17z" fill="#fa4719"/><path d="m57 33h-.17-4.03-15.8l-4 6h11 6 1.17 4.29 5.54z" fill="#ffb655"/><path d="m55.46 39h-4.29-1.17v2.34 2.66h3.09 7.91v-5z" fill="#ff9811"/><path d="m33 44v15a2.006 2.006 0 0 0 2 2h24a2.006 2.006 0 0 0 2-2v-15z" fill="#ffb655"/><path d="m33 39h11v5h-11z" fill="#ff9811"/><path d="m44 39v5 4.24.76l3-2 2.49 1.66.51.34v-.87-4.13-2.66-2.34z" fill="#e6e7e8"/><g fill="#ff6243"><path d="m29 10h2v2h-2z"/><path d="m15.565 15.564h2v2.001h-2z" transform="matrix(.707 -.707 .707 .707 -6.861 16.565)"/><path d="m10 29h2v2h-2z"/><path d="m15.564 42.435h2.001v2h-2.001z" transform="matrix(.707 -.707 .707 .707 -25.861 24.435)"/><path d="m29 48h2v2h-2z"/><path d="m48 29h2v2h-2z"/><path d="m42.434 15.565h2.001v2h-2.001z" transform="matrix(.707 -.707 .707 .707 1.009 35.565)"/></g><path d="m29 15h2v12h-2z" fill="#ff5023"/><path d="m17 29h10v2h-10z" fill="#ff5023"/><path d="m30 33.828a1 1 0 0 1 -.707-.293l-2.828-2.828a1 1 0 0 1 0-1.414l2.828-2.828a1 1 0 0 1 1.414 0l2.828 2.828a1 1 0 0 1 0 1.414l-2.828 2.828a1 1 0 0 1 -.707.293zm-1.414-3.828 1.414 1.414 1.414-1.414-1.414-1.414z" fill="#ed1c24"/></svg>